<svg xmlns="http://www.w3.org/2000/svg"
	xmlns:xlink="http://www.w3.org/1999/xlink" version="1.1" x="0px" y="0px"
	viewBox="0 0 100 100" style="enable-background:new 0 0 100 100;"
	xml:space="preserve">
	<path
		d="M49,47.7v31.4l-17.7,4.2c-0.8,0.2-1.2,0.9-1.1,1.6c0.1,0.8,0.7,1.3,1.5,1.3h36.7c0.8,0,1.4-0.6,1.5-1.3  c0.1-0.8-0.4-1.5-1.1-1.6L51,79.1V47.7l32-32.3c0.3-0.3,0.4-0.7,0.2-1.1s-0.5-0.6-0.9-0.6H17.7c-0.4,0-0.8,0.2-0.9,0.6  s-0.1,0.8,0.2,1.1L49,47.7z M64.1,84.3H35.9L50,81L64.1,84.3z M79.9,15.7L50,45.9L20.1,15.7H79.9z" />
</svg>