<svg xmlns="http://www.w3.org/2000/svg" xmlns:xlink="http://www.w3.org/1999/xlink" version="1.1" x="0px" y="0px" viewBox="0 0 1000 1250" enable-background="new 0 0 1000 1000" xml:space="preserve"><g><path d="M774.7,263.1c-3.4-9.1-12.1-15.1-21.7-15.1H247.1c-9.7,0-18.3,6-21.7,15.1c-3.4,9.1-0.7,19.3,6.6,25.7L477,502.3V705H368.2   c-12.8,0-23.2,10.7-23.2,23.5c0,12.8,10.4,23.5,23.2,23.5h263.6c12.8,0,23.2-10.7,23.2-23.5c0-12.8-10.4-23.5-23.2-23.5H524V502.3   l244.6-213.5C775.9,282.4,778.1,272.2,774.7,263.1z M500,461.4L309,295H691L500,461.4z"/></g><text x="0" y="1015" fill="#000000" font-size="5px" font-weight="bold" font-family="'Helvetica Neue', Helvetica, Arial-Unicode, Arial, Sans-serif">Created by Alvaro Cabrera</text><text x="0" y="1020" fill="#000000" font-size="5px" font-weight="bold" font-family="'Helvetica Neue', Helvetica, Arial-Unicode, Arial, Sans-serif">from the Noun Project</text></svg>