<svg xmlns="http://www.w3.org/2000/svg"
	xmlns:xlink="http://www.w3.org/1999/xlink" version="1.1" x="0px" y="0px"
	viewBox="0 0 50 50" style="enable-background:new 0 0 50 50;"
	xml:space="preserve">
	<path
		d="M37.1767578,3.5932617c-0.2431641-0.3857422-1.5878906-0.9350586-12.1699219-0.9350586v0.6430664l-0.0048828-0.6430664  c-0.0009766,0-0.0029297,0-0.0039063,0c-10.578125,0-11.9238281,0.5493164-12.1660156,0.9350586  C12.2460938,4.269043,7.65625,9.8393555,10.9990234,14.6201172c1.7421875,2.4907227,5.3681641,4.5830078,8.0166016,6.1108398  c1.3857422,0.800293,2.8193359,1.6274414,3.0810547,2.0449219c1.4550781,2.3212891,0.7949219,17.3979492,0.5244141,18.9819336  c-0.15625,0.9179688-2.9628906,1.5771484-4.8193359,2.0126953c-2.3828125,0.5595703-4.1044922,0.9638672-4.1044922,2.0507813  c0,1.1552734,0.5146484,1.5205078,11.3164063,1.5205078c10.7832031,0,11.2978516-0.3652344,11.2978516-1.5205078  c0-1.0869141-1.7216797-1.4912109-4.1035156-2.0507813c-1.8574219-0.4355469-4.6630859-1.0947266-4.8193359-2.0126953  c-0.2705078-1.5839844-0.9306641-16.6611328,0.5234375-18.9819336c0.2617188-0.4174805,1.6953125-1.2446289,3.0810547-2.0449219  c2.6484375-1.527832,6.2744141-3.6201172,8.0166016-6.1108398C42.3525391,9.8388672,37.7626953,4.2685547,37.1767578,3.5932617z   M25.0019531,3.6582031h0.0048828c7.0056763,0,9.7513428,0.2631226,10.8098145,0.4423218  c-1.2035522,0.1958618-4.0534668,0.4453735-10.8117676,0.4453735c-6.7597656,0-9.6097412-0.2495728-10.8131104-0.4454346  C15.250061,3.9212036,17.9956055,3.6582031,25.0019531,3.6582031z M38.1894531,14.046875  c-1.6142578,2.309082-5.1289063,4.3369141-7.6953125,5.8178711c-1.9394531,1.1191406-3.0546875,1.78125-3.4296875,2.3798828  c-1.7675781,2.8212891-0.8525391,18.5668945-0.6621094,19.6811523c0.2685547,1.5722656,2.9667969,2.2060547,5.5771484,2.8183594  c1.2539063,0.2949219,3.1494141,0.7402344,3.3505859,1.0585938c-0.5292969,0.5390625-7.1396484,0.5390625-10.3349609,0.5390625  c-3.1767578,0-9.7871094,0-10.3046875-0.4863281c0.1894531-0.3710938,2.0849609-0.8164063,3.3398438-1.1113281  c2.609375-0.6123047,5.3085938-1.2460938,5.5771484-2.8183594c0.1904297-1.1142578,1.1054688-16.8588867-0.6630859-19.6811523  c-0.375-0.5986328-1.4902344-1.2607422-3.4296875-2.3798828c-2.5664063-1.480957-6.0810547-3.5087891-7.6953125-5.8178711  c-2.6768799-3.8270874,0.7337036-8.513916,1.6101685-9.6047363c1.3425903,0.3910522,5.3617554,0.6037598,11.5753784,0.6037598  c6.2137451,0,10.2329102-0.2127686,11.5748291-0.6038208C37.4573975,5.5314941,40.8713989,10.2120972,38.1894531,14.046875z" />
	</svg>