<svg xmlns="http://www.w3.org/2000/svg" xmlns:xlink="http://www.w3.org/1999/xlink" version="1.1" x="0px" y="0px" viewBox="0 0 100 125" enable-background="new 0 0 100 100" xml:space="preserve"><path d="M 1134.1 -3146.3 l 38.3 260.8 c 0.3 0.2 1.8 1.2 1.8 1.2 c 0.6 0.4 1.2 0.7 2.1 1.2 l 1 0.6 c 0.7 0.4 3.4 1.8 3.4 1.8 c 0.8 0.4 4.2 2 4.2 2 c 0.9 0.4 1.8 0.8 2.9 1.3 l 2 0.9 c 0.9 0.4 1.9 0.8 2.8 1.1 l 2.4 1 c 1 0.4 2 0.7 3.2 1.2 l 2.6 0.9 c 1.1 0.4 2.2 0.7 3.2 1.1 l 3 1 c 1.1 0.3 2.3 0.7 3.5 1.1 l 3.1 0.9 l 3.7 1 l 3.6 0.9 c 1.2 0.3 2.4 0.6 3.8 0.9 l 3.2 0.8 l 4.4 1 l 3.4 0.7 l 4.5 0.9 l 4.1 0.8 l 4.3 0.8 l 8.6 1.5 c 1.5 0.2 8.9 1.4 8.9 1.4 l 9.3 1.2 l 9.5 1.1 l 9.7 1 l 10.1 0.8 l 10.1 0.7 l 10.3 0.5 c 1.8 0.1 10.6 0.4 10.6 0.4 c 2.4 0.1 4.9 0.1 7.3 0.2 l 3.5 0.1 c 3.6 0.1 7.3 0.1 10.9 0.1 c 3.7 0 7.3 0 10.9 -0.1 l 3.5 -0.1 c 2.5 0 4.9 -0.1 7.2 -0.2 c 0 0 8.9 -0.3 10.7 -0.4 c 0 0 8.7 -0.5 10.4 -0.5 l 10.3 -0.7 l 9.9 -0.8 l 9.8 -1 l 9.4 -1.1 l 9.2 -1.2 c 0 0 7.5 -1.2 9.1 -1.4 c 1.4 -0.2 8.7 -1.5 8.7 -1.5 l 8.2 -1.5 l 8 -1.7 l 3.8 -0.9 l 4 -0.9 c 1.2 -0.3 2.4 -0.6 3.7 -0.9 l 3.5 -0.9 c 1.2 -0.3 2.4 -0.7 3.5 -1 l 3.3 -0.9 l 3.5 -1 l 3 -1 c 1.1 -0.4 2.2 -0.7 3.4 -1.1 l 2.6 -0.9 c 1.1 -0.4 2.1 -0.7 3.3 -1.2 l 2.3 -0.9 c 1 -0.4 1.9 -0.8 3 -1.2 l 2 -0.8 c 0.9 -0.4 1.8 -0.8 2.9 -1.3 l 1.6 -0.8 c 0.8 -0.4 1.6 -0.7 2.4 -1.2 c 0 0 2.9 -1.5 3.5 -1.9 l 0.9 -0.5 c 0 0 1.6 -0.9 2.1 -1.3 c 0 0 1.5 -1 1.8 -1.2 l 38.3 -260.8 c -55.7 -13.4 -135.2 -21.8 -223.4 -21.8 C 1269.3 -3168.1 1189.8 -3159.7 1134.1 -3146.3 z"/><path d="M -12.2 -3329.8 c 126.2 -36.6 214.3 -162.5 214.3 -306.3 c 0 -33.2 -4.7 -65.9 -13.9 -97.4 c -0.3 -0.9 -0.6 -1.6 -1 -2.4 c -20.9 -43.7 -241 -45.8 -266.8 -45.9 c -25.6 0.1 -241.6 2.2 -266.1 44.8 c -0.8 1 -1.4 2.2 -1.8 3.5 c -9.2 31.6 -13.9 64.3 -13.9 97.4 c 0 143.8 88.1 269.8 214.3 306.3 c 8.6 2.5 30.8 14 30.8 37.1 l 0 281.7 c -2.2 120.9 -37.7 152.7 -94.2 164.7 c -16.2 3.4 -29.4 6.2 -40.2 8.4 c -45.4 9.4 -51.3 10.6 -54 21.4 c -0.2 0.7 -0.3 2 -0.3 2.8 c 0 47.7 166.9 54.3 200.4 55.1 c 8.2 0.2 16.6 0.5 25.1 0.5 h 0.1 c 8.5 0 16.9 -0.3 25.2 -0.5 c 33.5 -0.8 200.3 -7.3 200.3 -55 c 0 -0.9 -0.2 -2.5 -0.4 -3.4 c -2.7 -10.3 -8.5 -11.5 -53.9 -20.9 c -10.8 -2.2 -24.1 -5 -40.3 -8.4 C -5.7 -2858.3 -41 -2890.6 -43 -3013.7 v -279 C -43 -3315.8 -20.8 -3327.3 -12.2 -3329.8 z M -79.7 -3760.3 c 144.9 0.5 237.1 19.4 246.7 31.9 c -24.2 14.3 -113.7 30.2 -246.7 30.6 c -132.3 -0.5 -221.6 -16.2 -246.3 -30.5 C -313.8 -3741.4 -222.3 -3759.7 -79.7 -3760.3 z M 46.5 -2825.1 c 16.3 3.5 29.7 6.2 40.5 8.5 c 14.3 2.9 26 5.3 33.2 7.1 c -15.3 10.7 -72.3 26.8 -175.3 29.3 c -8.1 0.2 -16.2 0.3 -24.6 0.3 h -0.1 c -8.3 0 -16.5 -0.1 -24.7 -0.3 c -103.5 -2.5 -160.6 -18.7 -175.5 -29.2 c 7.1 -1.8 18.9 -4.2 33.4 -7.2 c 10.8 -2.2 24 -5 40.3 -8.4 C -129.2 -2841.5 -97 -2895.2 -95 -3010.7 v -281.9 c 0 -35.1 -30.2 -53.2 -46.3 -57.8 c -117 -33.9 -198.7 -151.4 -198.7 -285.7 c 0 -28.6 3.8 -56.9 11.1 -84.3 c 39.4 22.1 161.9 30.9 249.2 31.3 c 87.2 -0.3 209.8 -9.1 249.2 -31.3 c 7.3 27.4 11.1 55.7 11.1 84.3 c 0 134.3 -82 251.8 -199 285.7 c -16 4.6 -46.5 22.7 -46.5 57.8 v 279.1 C -63 -2896.2 -31 -2841.6 46.5 -2825.1 z"/><path d="M -525.7 -3998.7 c -64.5 -14.9 -172.3 -23.8 -288.7 -23.8 c -116 0 -223.9 8.9 -288.3 23.8 c -49.3 11.3 -59.8 23.3 -63.7 32.1 c -0.6 1.7 -0.9 3.6 -0.9 5.7 l 0 4.6 c 1.9 295.4 29.9 429.1 59.6 570.6 c 22.9 109.3 46.6 222.4 57.1 418.4 c 2.4 44.6 4 92.4 4.9 141.9 c 0 30.3 19 38.3 27.7 41.8 c 55.5 22.9 127.8 35.6 203.8 35.6 h 0.1 c 75.9 0 148.2 -12.7 204.2 -35.8 c 8.1 -3.3 27.1 -11.2 27.1 -41.3 c 0.9 -50.6 2.6 -98.4 5 -142.1 c 10.5 -196 34.3 -309.1 57.2 -418.5 C -491 -3527.3 -463 -3661 -461 -3956.4 v -4.5 c 0 -2.1 -0.4 -4 -1.4 -6.5 C -466 -3975.4 -476.5 -3987.4 -525.7 -3998.7 z M -1098 -3977.8 c 63 -14.6 169 -23.3 283.8 -23.3 c 114.5 0 220.5 8.7 283.5 23.3 c 31.1 7.2 42.5 13.8 46.5 17 c -7.1 4.3 -20.4 9.8 -45.1 15.5 c -63.4 14.6 -169.9 23.4 -285.3 23.4 c -115 0 -221.6 -8.8 -284.9 -23.4 c -24.6 -5.7 -37.9 -11.2 -45 -15.5 C -1140.4 -3964 -1129 -3970.6 -1098 -3977.8 z M -541.9 -3390.2 c -23.1 110.2 -46.9 224.1 -57.6 421.7 c -2.4 43.9 -4.1 92 -5 143 c 0 15.9 -7 18.7 -14.3 21.7 c -53 21.8 -122.4 33.7 -195.5 33.7 h -0.2 c -73.1 0 -142.5 -11.9 -196.1 -33.9 c -6.8 -2.8 -13.8 -5.6 -13.8 -21.7 c -0.9 -49.9 -2.5 -98 -4.9 -142.8 c -10.6 -197.7 -34.5 -311.5 -57.6 -421.7 c -29.3 -139.7 -56.9 -271.6 -59.1 -561.4 c 9.9 5.3 24.7 10.2 44.4 14.7 c 64 14.8 171.2 23.6 287.2 23.7 c 115.7 0 222.9 -8.9 286.9 -23.6 c 19.8 -4.6 34.5 -9.4 44.5 -14.8 C -485 -3661.8 -512.6 -3529.8 -541.9 -3390.2 z"/><path d="M -1365.8 -2817.6 c -61.4 -9.9 -101.4 -37.7 -118.8 -82.6 c -12.6 -32.6 -13.2 -194.6 -11.3 -253.5 c 3.7 -114.5 21.8 -156.4 51.8 -225.9 c 16.9 -39.1 37.8 -87.8 61.4 -162.4 c 69.7 -220.8 35.1 -593 22.6 -703.4 c 0.2 -7.9 -4.8 -21 -23.8 -26 c -3 -1.3 -32.7 -12.6 -138.7 -14.6 h -25.2 c -106.3 2 -136.1 13.3 -137.6 14.1 c -20.4 5.5 -25.5 18.5 -25.3 26.4 c -12.5 110.4 -47.1 482.7 22.6 703.4 c 23.6 74.6 44.5 123.3 61.4 162.4 c 30 69.5 48.1 111.5 51.8 226 c 1.9 58.9 1.3 220.8 -11.3 253.5 c -17.4 44.9 -57.3 72.7 -118.9 82.6 c -11.1 1.9 -66.4 13 -70.8 43 c -0.1 2.1 -0.2 13.7 12.1 26.9 c 20.7 22.1 76.2 48.7 223.5 48.7 h 9.9 c 147.3 0 202.8 -26.6 223.5 -48.7 c 12.3 -13.2 12.3 -24.7 12 -27.7 C -1299.2 -2804.5 -1354.6 -2815.6 -1365.8 -2817.6 z M -1678.5 -4251.4 c 0.3 -0.1 29 -11.6 130.8 -12.6 h 24.9 c 101.5 1 130.1 12.5 131.8 13.1 c 3.6 1 5.9 2.1 7.3 3 c -1.7 0.8 -3.8 1.3 -6.3 2 c -0.3 0.1 -29 11.9 -133.3 12.9 h -25 c -103.9 -1 -132.5 -12.8 -133.4 -13.1 c -2.2 -0.6 -4 -1.1 -5.5 -1.8 C -1685.5 -4249 -1682.8 -4250.2 -1678.5 -4251.4 z M -1322.7 -2762.6 c -14.5 15.6 -60.9 41.6 -207.8 41.6 h -9.9 c -204 0 -214 -51.3 -214.2 -51.3 c 0 0 0 0 0 0 c 1.3 -8.7 29.1 -19.9 53 -24.1 c 86.6 -13.9 121.4 -59.9 135.4 -96.1 c 16 -41.3 13.8 -229.1 12.8 -262 c -3.8 -118.5 -23.6 -164.4 -53.5 -233.8 c -16.7 -38.7 -37.4 -86.8 -60.6 -160.3 c -67.4 -213.6 -35.1 -574.7 -22.3 -691.1 c 1.6 0.7 3.4 1.2 5.4 1.8 c 1.2 0.5 29.7 12.8 136.1 13.8 h 25.1 c 106.9 -1 135.5 -13.3 136 -13.6 c 2.2 -0.6 4.2 -1.3 6 -2 c 12.7 113.4 45.6 476.6 -22.1 691.1 c -23.2 73.6 -44 121.7 -60.7 160.3 c -29.9 69.4 -49.7 115.3 -53.5 233.8 c -1.1 32.9 -3.2 220.8 12.8 262 c 14 36.1 48.8 82.1 135.3 96 c 24 4.2 51.9 15.4 53.1 23.2 C -1316.3 -2773.1 -1317.1 -2768.6 -1322.7 -2762.6 z"/><path d="M 2454.1 -3865.1 c 58.7 25.1 169.5 42 296.5 42 c 127 0 237.8 -16.9 296.6 -42 c -58.7 -25.1 -169.5 -42 -296.6 -42 C 2623.6 -3907.1 2512.9 -3890.2 2454.1 -3865.1 z"/><path d="M 2716.4 -3482.3 l 0.6 0.8 c 0 0 22.8 30.2 33.8 30.2 c 11 0 33.5 -30.1 33.5 -30.1 l 231 -310 c -65.7 18.8 -159.9 30.5 -264.6 30.5 c -104.7 0 -199 -11.8 -264.6 -30.5 L 2716.4 -3482.3 z"/><path d="M 2750.7 -3973.1 c -168 0 -346.9 32.2 -363.7 93.7 c -0.9 3.2 -1.3 6.4 -1.3 9.6 c 0 6.1 1.6 12.1 5.3 18.9 l 236.7 345.2 c 0.8 1 77.9 103.2 77.9 195.6 c 0 29.4 2.8 75.9 5.8 125.1 c 4.9 81.7 10.5 174.3 6.3 229.8 c -0.4 15.9 -2.9 41.8 -7.3 49.9 c -26.1 57.6 -106 77.1 -132.2 83.5 c -3.4 0.8 -6.1 1.5 -7.8 2 c -2.4 0.7 -5.6 1.5 -9.4 2.4 c -23.1 5.5 -61.7 14.6 -65.9 43.8 c -0.2 2.3 -0.2 14.5 13.2 28.8 c 22.5 24.1 82.9 52.8 242.4 52.9 h 0.1 c 159.6 -0.1 219.9 -28.8 242.4 -52.9 c 13.4 -14.3 13.3 -26.5 13.1 -29.6 c -4.2 -28.4 -42.8 -37.5 -65.8 -42.9 c -3.8 -0.9 -7 -1.6 -9.4 -2.4 c -1.7 -0.5 -4.3 -1.2 -7.8 -2 c -26.3 -6.4 -106.2 -25.9 -132.6 -84.2 c -4.1 -7.4 -6.5 -33.2 -6.9 -49.7 c -4.2 -55 1.4 -147.6 6.4 -229.3 c 3 -49.2 5.8 -95.7 5.8 -125.1 c 0 -92.4 77.1 -194.6 78.2 -196 l 231.6 -337.6 l 5.5 -8.2 c 3 -5.8 4.6 -11.8 4.6 -17.9 c 0 -3.2 -0.4 -6.5 -1.3 -9.5 C 3097.6 -3940.9 2918.7 -3973.1 2750.7 -3973.1 z M 2856.5 -3518.8 c -3.4 4.4 -82.3 108.9 -82.3 208.6 c 0 28.8 -2.8 74.9 -5.7 123.8 c -5 82.4 -10.6 175.8 -6.4 231.7 c 0.2 7.3 1.5 44.3 9.2 58.2 c 30.4 67.1 118 88.5 146.8 95.5 c 3 0.7 5.3 1.3 6.7 1.7 c 2.7 0.8 6.4 1.7 10.6 2.7 c 15.4 3.6 47.4 11 49.4 23.5 c 0 0.6 -4.7 59 -234.1 59 h -0.1 c -226.8 0 -234 -57.1 -234.2 -57.6 c 2 -13.9 34.1 -21.3 49.5 -25 c 4.2 -1 7.9 -1.8 10.6 -2.6 c 1.5 -0.4 3.8 -1 6.8 -1.7 c 28.8 -7 116.3 -28.4 146.4 -94.8 c 8 -14.6 9.4 -51.7 9.5 -58.4 c 4.3 -56.4 -1.4 -149.8 -6.3 -232.2 c -2.9 -48.9 -5.7 -95 -5.7 -123.8 c 0 -99.7 -79 -204.3 -82 -208.2 l -222.8 -324.9 c 55.7 34.2 182.6 56.9 328.3 56.9 c 145.8 0 272.7 -22.7 328.6 -57.1 L 2856.5 -3518.8 z M 3093.8 -3866.4 l -0.3 0.4 c -34.7 41.2 -178.8 71 -342.8 71 s -308.1 -29.9 -342.5 -70.7 l -0.5 -0.7 c -0.3 -1.2 -0.4 -2.3 -0.4 -3.5 c 0 -1.2 0.2 -2.5 0.6 -3.8 c 10.3 -37.6 150.5 -77.9 343 -77.9 c 192.4 0 332.6 40.3 342.9 77.9 c 0.3 1.2 0.5 2.5 0.5 3.8 C 3094.1 -3868.7 3094 -3867.5 3093.8 -3866.4 z"/><path d="M 2094.8 -3794 l -3.5 0 l -4.5 0 c -8.9 0 -216.7 0.6 -216.7 54.6 v 920.9 l 0 3.8 c -0.1 2.8 -0.7 27.9 13.5 44.5 c 4.8 5.6 21.7 15.8 34.7 21.8 c 25.2 11.6 80.8 31.4 170.8 33.4 v -0.3 c 1 0.2 2.2 0.3 3 0.3 h 0.1 c 0.1 0 0.3 0.1 0.4 0.1 c 0.5 0 1 0 1.5 -0.1 c 89.2 -2.1 144.6 -21.8 169.7 -33.4 c 11.3 -5.2 29.7 -15.6 34.9 -21.7 c 14.3 -16.7 13.7 -41.7 13.7 -44.9 l -0.1 -923.2 c 0.1 -0.5 0.2 -2 0.2 -2.5 C 2312.4 -3793.4 2104.4 -3794 2094.8 -3794 z M 2087.4 -3772 h 8.2 c 120.2 0 189.1 19.8 195.2 30.3 c -13.6 15.2 -87 33.1 -199.6 33.1 c -111.7 0 -184.9 -17.6 -199.3 -32.7 C 1900.5 -3753 1969.1 -3772 2087.4 -3772 z M 2291 -2818.5 l -0.1 2.7 c 0 0.4 -0.2 1.6 -0.2 2 c 0.2 5.3 -1 21 -8.3 29.6 c -2.3 2.3 -14.8 10.4 -27.7 16.3 c -23.7 10.9 -76.4 29.8 -162.5 31.6 c -0.4 0 -0.7 0.3 -1.1 0.3 c -0.1 0 -0.1 0 -0.2 0 c -0.4 0 -0.7 -0.3 -1.1 -0.3 c -86.1 -1.9 -138.7 -20.6 -162.5 -31.5 c -12.9 -5.9 -25.4 -14.1 -27.6 -16.2 c -7.4 -8.7 -8.6 -24.4 -8.5 -30.9 l -0.2 -916.4 c 29.6 20.4 117 31.3 200.1 31.3 c 82.7 0 169.7 -10.8 199.7 -31 V -2818.5 z"/><path d="M -1387.8 -4136.2 c -0.1 -0.1 -0.2 -0.2 -0.4 -0.2 c 0 0 -27.6 -11.6 -134.4 -13.6 h -25 c -107.3 2 -135 13.6 -135 13.6 c -0.1 0 -0.2 0.1 -0.3 0.2 c -10.9 172.9 -23.6 608 123.9 728.4 c 4.2 3.4 15.7 11.1 23.9 11.1 c 8.2 0 18 -6.8 21.7 -9.7 C -1364.1 -3524.9 -1376.9 -3962.6 -1387.8 -4136.2 z"/><path d="M -814.3 -3818 c -115.5 -0.5 -216.7 -9.6 -276.4 -23.3 c -7.9 -1.8 -14.9 -3.7 -21.3 -5.7 c -1.8 -0.5 -5 -0.9 -5 3.3 c 0 1.1 0 2.1 0 3.2 c -2 327.8 123.2 551.6 124.7 916.6 c 0.7 41.3 -3 58.4 25.1 66 c 7.9 2.1 87.2 23.5 152.9 23.5 c 65.8 0 145.1 -21.4 153 -23.5 c 28 -7.5 24.4 -24.6 25.2 -66 c 1.4 -364.9 126.3 -588.7 124.9 -916.6 c 0 -1.1 0 -2.2 0 -3.2 c 0 -4.2 -3.4 -3.8 -5.1 -3.3 c -6.4 2 -13.5 3.9 -21.5 5.7 C -597.6 -3827.6 -698.9 -3818.5 -814.3 -3818 z"/><path d="M 163.1 -3632.4 c -36.5 -15.9 -130.5 -27.4 -241.4 -27.8 c -113.9 0.4 -209.9 12.5 -244.2 29 c 10.3 143.5 115 256.3 242.8 256.3 C 48.4 -3374.9 153.3 -3488.4 163.1 -3632.4 z"/><path d="M 499.3 -2839.6 c 0 0 0.2 0.9 0.2 0.9 c 0 0.2 0.3 0.9 0.3 0.9 c 0.1 0.2 0.5 1.2 0.5 1.2 c 0.1 0.2 0.6 1.3 0.6 1.3 c 0.1 0.2 0.9 1.5 0.9 1.5 c 0.3 0.4 1.2 1.7 1.2 1.7 c 0.2 0.3 0.6 0.7 0.9 1.1 l 0.8 1 c 0.2 0.3 1.5 1.6 1.5 1.6 l 0.4 0.4 c 0.4 0.4 0.9 0.9 1.4 1.3 l 1.2 1 c 0.3 0.3 2.7 2.3 2.7 2.3 c 0.5 0.4 3.1 2.3 3.1 2.3 c 0.7 0.5 1.3 0.9 2 1.4 l 1.6 1 c 0.7 0.5 1.5 0.9 2.2 1.4 c 0.5 0.3 1.1 0.7 1.7 1 c 0.8 0.5 1.6 0.9 2.4 1.3 c 0.5 0.3 1.2 0.6 1.9 1 c 0.9 0.5 1.7 0.9 2.5 1.3 l 2.2 1.1 c 0.8 0.4 1.7 0.8 2.5 1.2 c 0.8 0.4 1.6 0.7 2.4 1.1 c 0.8 0.4 1.7 0.7 2.6 1.1 c 0.9 0.3 1.7 0.7 2.6 1 c 1.1 0.4 1.9 0.8 2.8 1.1 c 1.1 0.4 3.6 1.3 3.6 1.3 l 2.2 0.8 c 1 0.4 2 0.7 2.9 1 l 3 1 l 4.1 1.2 l 2 0.6 l 3.5 0.9 c 1 0.2 1.9 0.5 2.9 0.8 c 1.2 0.3 4.8 1.1 4.8 1.1 l 2 0.5 l 6.8 1.4 c 1.2 0.2 7 1.3 7 1.3 l 7.4 1.2 c 1.1 0.2 7.3 0.9 7.3 0.9 l 7.7 0.8 c 1.3 0.1 2.6 0.2 3.9 0.3 l 3.8 0.3 c 1.5 0.1 2.8 0.2 4.2 0.2 l 3.8 0.2 c 1.7 0.1 3.5 0.2 5.4 0.2 l 2.6 0.1 c 1.1 0 2.2 0.1 3.3 0.1 c 0 0 0 0 0 0 c 0 0 0 0 0 0 c 1.1 0 2.2 -0.1 3.2 -0.1 l 2.6 -0.1 c 1.8 -0.1 3.7 -0.1 5.4 -0.2 l 3.9 -0.2 c 1.4 -0.1 2.8 -0.2 4.2 -0.2 l 3.8 -0.3 c 1.3 -0.1 2.6 -0.2 3.9 -0.3 l 7.6 -0.8 c 0 0 6.3 -0.8 7.3 -0.9 l 7.3 -1.2 c 0 0 5.8 -1 7 -1.3 l 6.8 -1.4 l 2.1 -0.5 c 0 0 3.5 -0.8 4.8 -1.1 c 1 -0.2 2 -0.5 2.9 -0.8 l 3.5 -0.9 l 2 -0.6 l 4.1 -1.2 l 3 -1 c 1 -0.3 1.9 -0.6 2.9 -1 l 2.2 -0.8 c 0 0 2.5 -0.9 3.6 -1.3 c 0.9 -0.3 1.7 -0.6 2.7 -1.1 c 0.9 -0.3 1.7 -0.7 2.6 -1 c 0.9 -0.4 1.7 -0.7 2.5 -1.1 c 0.8 -0.3 1.6 -0.7 2.4 -1.1 c 0.9 -0.4 1.7 -0.8 2.5 -1.2 l 2.2 -1.1 c 0.8 -0.4 1.6 -0.8 2.5 -1.3 c 0.7 -0.3 1.3 -0.7 1.9 -1 c 0.8 -0.5 1.6 -0.9 2.4 -1.3 c 0.6 -0.4 1.2 -0.7 1.7 -1 c 0.7 -0.4 1.5 -0.9 2.2 -1.4 l 1.5 -1 c 0.7 -0.5 1.4 -0.9 2 -1.4 c 0 0 2.6 -1.9 3.1 -2.3 c 0 0 2.4 -2 2.8 -2.3 l 1.1 -1 c 0.5 -0.4 1 -0.9 1.4 -1.3 l 0.4 -0.4 c 0 0 1.2 -1.3 1.5 -1.6 l 0.8 -1 c 0.3 -0.4 0.7 -0.8 0.9 -1.1 c 0 0 1 -1.3 1.2 -1.7 c 0 0 0.8 -1.3 0.9 -1.5 c 0 0 0.5 -1.1 0.6 -1.3 c 0 0 0.4 -1 0.5 -1.2 c 0 0 0.2 -0.8 0.3 -0.9 c 0 0 0.2 -0.8 0.2 -0.9 l 62.9 -563.8 c -42.2 22.5 -116.8 37.6 -202.1 38.2 c -85.3 -0.6 -159.9 -15.6 -202.1 -38.2 L 499.3 -2839.6 z"/><path d="M 447.7 -3456.1 c 27 18.9 102.3 32.5 190.9 32.5 c 88.3 0 163.3 -13.5 190.6 -32.2 c -44.7 -18.9 -113.6 -31.1 -191.1 -31.1 C 561.1 -3486.9 492.4 -3474.8 447.7 -3456.1 z"/><path d="M 2091.1 -3624 c 0 0 0 0 0 0 c -75.1 0 -140.8 8 -176.8 20.1 l 0.1 1.4 l 10.4 687.4 c 0 0 -0.7 25.4 15.5 41.8 c 37.6 34 91.2 55.3 150.7 55.3 c 0 0 0 0 0 0 c 0 0 0 0 0.1 0 c 59.5 0 113.1 -21.3 150.7 -55.3 c 16.2 -16.4 15.5 -41.9 15.5 -41.9 l 10.4 -687.4 l 0.1 -1.2 c -36 -12.2 -101.7 -20.1 -176.8 -20.1 C 2091.2 -3624 2091.2 -3624 2091.1 -3624 z"/><path d="M 638.5 -3559.2 c -113.5 0 -236.8 27.9 -252.9 81.2 c -1.1 3.8 -1.7 7.7 -1.7 11.4 c 0 0.7 0 1.4 0.1 2.1 c 0 0.5 0 0.9 0 1.4 l 61.1 622.9 l 1.2 13.1 c 2.4 23.6 18.3 56.2 80 76.3 C 572.4 -2735.7 622.3 -2734 638 -2734 h 1 c 15.7 0 65.6 -1.7 111.7 -16.7 c 61.7 -20.1 77.6 -52.6 80 -76.2 l 1.3 -14.2 l 61 -621.9 c 0 -0.5 0.1 -1 0 -1.5 c 0.1 -0.7 0.1 -1.4 0.1 -2.1 c 0 -3.8 -0.6 -7.7 -1.7 -11.5 C 875.3 -3531.3 752 -3559.2 638.5 -3559.2 z M 809 -2826.6 c -3.8 23.9 -25.6 42.4 -64.9 55.2 c -43.6 14.2 -91.2 15.4 -105.5 15.5 c -14.3 0 -61.9 -1.3 -105.5 -15.5 c -39.2 -12.8 -61 -31.3 -64.9 -55 l -60.9 -620.9 c 36.1 32.2 126.5 54.5 231.3 54.5 c 104.9 0 195.3 -22.3 231.3 -54.5 L 809 -2826.6 z M 871.5 -3465 c 0 0.4 -0.1 0.9 0 1.3 l -0.3 2.8 c -26.1 34.1 -122.4 59.5 -232.7 59.5 c -110.3 0 -206.6 -25.4 -232.6 -59.5 l -0.4 -3.9 c 0 -0.6 0 -1.2 -0.1 -1.8 c 0 -1.7 0.3 -3.5 0.8 -5.3 c 9.6 -31.7 101.1 -65.8 232.3 -65.8 c 131.2 0 222.7 34.2 232.3 65.8 C 871.3 -3470 871.6 -3468.3 871.5 -3465 z"/><path d="M 1670.8 -3344.5 c -21.2 -42.9 -177.2 -62.4 -313.3 -62.4 c -136.1 0 -292.1 19.5 -313.3 62.4 c -1.8 3.6 -2.7 7.4 -2.7 11.2 c 0 0.2 0.1 0.8 0.1 1.5 c 0 0.7 0 0.2 0.1 0.9 l 73.6 458.5 l 4 25.2 l 3.7 22.6 c 0.6 3.4 2.8 6.4 5.9 8 c 3.6 1.9 91 45.4 229 45.4 c 138.1 0 224.4 -43.6 228 -45.4 c 3.1 -1.6 5.2 -4.5 5.8 -8 l 3.8 -22.6 l 1.3 -7.5 l 2.8 -17.7 l 73.6 -458.6 c 0.1 -0.7 0.2 -0.8 0.1 -1.6 c 0 -0.6 0.1 -0.9 0.1 -1.1 C 1673.5 -3337.5 1672.6 -3340.9 1670.8 -3344.5 z M 1578.7 -2875.8 l -7.6 42 c -19.8 8.9 -98.7 40.7 -213.1 40.7 c -114.5 0 -194.1 -31.8 -214.1 -40.7 l -7.3 -42 l -71.1 -443.4 c 41.9 26.1 155.5 43.8 292.1 43.8 c 136.6 0 250.3 -17.7 292.1 -43.9 L 1578.7 -2875.8 z M 1651.8 -3332.8 l -0.3 1.6 c -28 24.2 -138 47.1 -294 47.1 c -155.9 0 -265.9 -22.9 -294 -47 l -0.3 -1.8 c 0 -0.4 -0.1 -0.3 -0.1 -0.7 l -0.1 0.2 l 0.5 -1.7 c 10.4 -21.1 118.4 -50.3 294 -50.3 c 175.6 0 283.5 29.3 294 50.5 c 0 0 0.4 2 0.4 2 C 1651.8 -3332.5 1651.8 -3333.2 1651.8 -3332.8 z"/><path d="M 33.6 96.9 c 2.3 1.1 7.5 2.9 15.8 3.1 v 0 c 0.1 0 0.2 0 0.3 0 h 0 c 0 0 0 0 0 0 c 0 0 0.1 0 0.1 0 c 8.2 -0.2 13.4 -2 15.7 -3.1 c 1 -0.5 2.7 -1.4 3.2 -2 c 1.3 -1.5 1.3 -3.9 1.3 -4.2 l 0 -85.6 c 0 0 0 -0.2 0 -0.2 C 70 0.1 50.8 0 49.9 0 l -0.3 0 L 49.2 0 c -0.8 0 -20 0.1 -20 5.1 v 85.3 v 0.4 c 0 0.3 -0.1 2.6 1.2 4.1 C 30.8 95.4 32.4 96.3 33.6 96.9 z M 49.2 2 h 0.8 c 11.1 0 17.5 1.8 18 2.8 c -1.3 1.4 -8 3.1 -18.4 3.1 c -10.3 0 -17.1 -1.6 -18.4 -3 C 32 3.8 38.3 2 49.2 2 z M 49.6 8.7 c 7.6 0 15.7 -1 18.4 -2.9 v 84.6 l 0 0.2 c 0 0 0 0.1 0 0.2 c 0 0.5 -0.1 1.9 -0.8 2.7 c -0.2 0.2 -1.4 1 -2.6 1.5 c -2.2 1 -7.1 2.8 -15 2.9 c 0 0 -0.2 0 -0.2 0 c -7.9 -0.2 -12.8 -1.9 -15 -2.9 c -1.2 -0.6 -2.3 -1.3 -2.5 -1.5 c -0.7 -0.8 -0.8 -2.3 -0.8 -2.9 L 31.1 5.8 C 33.8 7.7 41.9 8.7 49.6 8.7 z"/>
</svg>