<svg xmlns="http://www.w3.org/2000/svg"
	xmlns:xlink="http://www.w3.org/1999/xlink" version="1.1" x="0px" y="0px"
	viewBox="0 0 50 50" style="enable-background:new 0 0 50 50;"
	xml:space="preserve">
	<path
		d="M34.0527344,4.0861816l0.0307617-0.1733398c0-0.3989258,0-1.4580078-9.2084961-1.4580078  s-9.2084961,1.059082-9.2084961,1.4580078l0.0307617,0.1733398c0.0175781,0.0473633,1.7490234,4.7709961,2.0224609,8.7880859  c0.2456055,3.6005859-0.3823242,6.9814453-0.9365234,9.9638672c-0.2705078,1.4545898-0.5258789,2.828125-0.6230469,3.9980469  c-0.2368164,2.8388672-0.1884766,5.6289063,2.9584961,8.546875c0.5649414,0.5244141,1.0556641,0.9550781,1.4814453,1.328125  c0.9707031,0.8515625,1.5566406,1.3652344,1.9233398,2.0117188c0.4321289,0.7607422,0.3930664,3.2861328,0.1821289,3.6884766  c-0.3359375,0.5185547-1.6484375,0.7392578-2.8066406,0.9335938c-1.7250977,0.2890625-3.5087891,0.5878906-3.8105469,1.9570313  c-0.0771484,0.3486328-0.0019531,0.6787109,0.2177734,0.9521484C16.8188477,46.8928223,18.237793,47.545166,24.875,47.545166  s8.0561523-0.6523438,8.5688477-1.2910156c0.2197266-0.2734375,0.2949219-0.6035156,0.2177734-0.9521484  c-0.3017578-1.3691406-2.0854492-1.6679688-3.8105469-1.9570313c-1.1582031-0.1943359-2.4707031-0.4150391-2.8022461-0.9257813  c-0.215332-0.4101563-0.2543945-2.9355469,0.1772461-3.6962891c0.3671875-0.6464844,0.953125-1.1601563,1.9238281-2.0117188  c0.4257813-0.3730469,0.9165039-0.8037109,1.4814453-1.328125c3.1469727-2.9179688,3.1953125-5.7080078,2.9584961-8.5478516  c-0.097168-1.1689453-0.3525391-2.5424805-0.6230469-3.9970703c-0.5541992-2.9824219-1.1821289-6.3632813-0.9365234-9.9638672  C32.3037109,8.861084,34.0351563,4.1335449,34.0527344,4.0861816z M32.5493774,3.9543457  C31.6165161,4.0899048,29.5274048,4.2541504,24.875,4.2541504s-6.7415161-0.1642456-7.6743774-0.2998047  C18.0839233,3.7379761,20.1436157,3.454834,24.875,3.454834S31.6660767,3.7379761,32.5493774,3.9543457z M31.9838867,23.0212402  c0.265625,1.4287109,0.5161133,2.777832,0.6098633,3.8969727c0.2231445,2.6826172,0.1787109,5.1162109-2.6420898,7.7324219  c-0.5576172,0.5166016-1.0410156,0.9404297-1.4609375,1.3085938c-1.0136719,0.8896484-1.6835938,1.4765625-2.1342773,2.2695313  c-0.5883789,1.0380859-0.6040039,4.0283203-0.1508789,4.7275391c0.5751953,0.8867188,1.9863281,1.1240234,3.4799805,1.3740234  c1.3330078,0.2236328,2.8432617,0.4775391,2.9995117,1.1865234c0.0136719,0.0605469,0.0048828,0.0791016-0.0209961,0.1113281  C32.4423828,45.9035645,31.2402344,46.545166,24.875,46.545166s-7.5673828-0.6416016-7.7890625-0.9169922  c-0.0258789-0.0322266-0.034668-0.0507813-0.0209961-0.1113281c0.15625-0.7089844,1.6665039-0.9628906,2.9995117-1.1865234  c1.4936523-0.25,2.9047852-0.4873047,3.4799805-1.3740234c0.453125-0.6992188,0.4375-3.6894531-0.1513672-4.7275391  c-0.4501953-0.7929688-1.1201172-1.3798828-2.1337891-2.2695313c-0.4199219-0.3681641-0.9033203-0.7919922-1.4609375-1.3085938  c-2.8208008-2.6162109-2.8652344-5.0498047-2.6420898-7.7314453c0.09375-1.1201172,0.3442383-2.4692383,0.6098633-3.8979492  c0.5371094-2.890625,1.2055664-6.4882813,0.9516602-10.215332C18.493042,9.5068359,17.3621826,5.866272,16.8667603,4.401001  C18.3973389,4.6860962,21.8966064,4.7541504,24.875,4.7541504s6.4776611-0.0680542,8.0082397-0.3531494  c-0.4954224,1.465271-1.6262817,5.105835-1.8510132,8.4049072C30.7783203,16.532959,31.4467773,20.1306152,31.9838867,23.0212402z" />
</svg>