<svg xmlns="http://www.w3.org/2000/svg" data-name="Layer 1" viewBox="0 0 100 125" x="0px" y="0px"><title>Noun_Project_100Icon_10px_alcohol</title><path d="M23.6,90a2,2,0,0,0,0,.21c.81,5.67,19.32,6.91,26.38,6.91s25.57-1.24,26.38-6.91a2,2,0,0,0,0-.21l2.22-61s0,0,0-.07c0-2.39-2.58-3.64-9.52-4.61A145.75,145.75,0,0,0,50,23.25a145.75,145.75,0,0,0-19.1,1.11c-6.94,1-9.52,2.22-9.52,4.61t0,.07ZM50,25.25c14.7,0,26.62,1.66,26.62,3.71L75,74.25C74.44,80.77,63.45,86,50,86S25.56,80.77,25,74.25L23.38,29C23.38,26.91,35.3,25.25,50,25.25Zm0,69.89c-13.48,0-24.06-2.76-24.4-5.19l-.45-12.3C28.42,83.06,38.32,87,50,87s21.58-3.94,24.85-9.35l-.45,12.3C74.06,92.38,63.48,95.14,50,95.14Z"/><path d="M50,33.17c8.66,0,25-.88,25-4.21a.5.5,0,1,0-1,0c0,1.12-8.25,3.21-24,3.21S26,30.08,26,29a.5.5,0,0,0-1,0C25,32.29,41.34,33.17,50,33.17Z"/><text x="0" y="115" fill="#000000" font-size="5px" font-weight="bold" font-family="'Helvetica Neue', Helvetica, Arial-Unicode, Arial, Sans-serif">Created by 1516</text><text x="0" y="120" fill="#000000" font-size="5px" font-weight="bold" font-family="'Helvetica Neue', Helvetica, Arial-Unicode, Arial, Sans-serif">from the Noun Project</text></svg>