<svg xmlns="http://www.w3.org/2000/svg" data-name="Layer 1" viewBox="0 0 100 100" x="0px" y="0px"><title>Noun_Project_100Icon_10px_alcohol</title><path d="M 23.6 90 a 2 2 0 0 0 0 0.2 c 0.8 5.7 19.3 6.9 26.4 6.9 s 25.6 -1.2 26.4 -6.9 a 2 2 0 0 0 0 -0.2 l 2.2 -61 s 0 0 0 -0.1 c 0 -2.4 -2.6 -3.6 -9.5 -4.6 A 145.8 145.8 0 0 0 50 23.3 a 145.8 145.8 0 0 0 -19.1 1.1 c -6.9 1 -9.5 2.2 -9.5 4.6 t 0 0.1 Z M 50 25.3 c 14.7 0 26.6 1.7 26.6 3.7 L 75 74.3 C 74.4 80.8 63.5 86 50 86 S 25.6 80.8 25 74.3 L 23.4 29 C 23.4 26.9 35.3 25.3 50 25.3 Z m 0 69.9 c -13.5 0 -24.1 -2.8 -24.4 -5.2 l -0.4 -12.3 C 28.4 83.1 38.3 87 50 87 s 21.6 -3.9 24.8 -9.3 l -0.5 12.3 C 74.1 92.4 63.5 95.1 50 95.1 Z"/><path d="M 50 33.2 c 8.7 0 25 -0.9 25 -4.2 a 0.5 0.5 0 1 0 -1 0 c 0 1.1 -8.3 3.2 -24 3.2 S 26 30.1 26 29 a 0.5 0.5 0 0 0 -1 0 C 25 32.3 41.3 33.2 50 33.2 Z"/>
</svg>