<svg xmlns="http://www.w3.org/2000/svg"
	xmlns:xlink="http://www.w3.org/1999/xlink" version="1.1" x="0px" y="0px"
	viewBox="0 0 50 50" style="enable-background:new 0 0 50 50;"
	xml:space="preserve">
	<path
		d="M33.7055359,21.2714844c-0.3818359-0.565918-0.7119141-1.0546875-0.8886719-1.4892578  c-0.6542969-1.6088867,1.0595703-10.15625,2.3701172-15.5083008l0.0751953-0.3046875l-0.2421875-0.199707  c-0.2060547-0.1708984-1.6435547-1.0214844-9.6865234-1.0214844s-9.4804688,0.8505859-9.6865234,1.0214844l-0.2421875,0.199707  L15.47995,4.2739258c1.3105469,5.3520508,3.0244141,13.8994141,2.3701172,15.5083008  c-0.1767578,0.4345703-0.5068359,0.9233398-0.8886719,1.4892578c-1.0664063,1.581543-2.5283203,3.7475586-1.8671875,6.8554688  c0.5791016,2.7177734,2.8710938,3.8427734,4.2412109,4.5146484c0.3134766,0.1538086,0.703125,0.3447266,0.7832031,0.4335938  c1.5800781,1.862793,1.9472656,3.9018555,2.3730469,6.2631836l0.1269531,0.6591797  c-0.0097656,0.0341797-0.0742188,0.128418-0.1210938,0.1972656c-0.2099609,0.3076172-0.5507813,0.8056641-0.5126953,1.7348633  c-0.2744141,0.1025391-0.8466797,0.2324219-1.2851563,0.3320313c-1.421875,0.3222656-3.0322266,0.6875-3.6962891,1.5024414  c-0.3417969,0.4194336-0.4082031,0.9321289-0.1835938,1.4067383c0.6474609,1.3613281,3.5908203,2.0810547,8.5136719,2.0810547  s7.8662109-0.7197266,8.5136719-2.0810547c0.2246094-0.4746094,0.1582031-0.9873047-0.1835938-1.4067383  c-0.6640625-0.8149414-2.2744141-1.1801758-3.6962891-1.5024414c-0.4384766-0.0996094-1.0107422-0.2294922-1.2851563-0.3320313  c0.0380859-0.9287109-0.3027344-1.4272461-0.5126953-1.7348633c-0.046875-0.0688477-0.1113281-0.1630859-0.1210938-0.1640625  l0.1269531-0.6923828c0.4257813-2.3613281,0.7929688-4.4003906,2.3720703-6.262207  c0.0810547-0.0898438,0.4707031-0.2807617,0.7841797-0.4345703c1.3701172-0.671875,3.6621094-1.796875,4.2412109-4.5146484  C36.2338562,25.019043,34.7719421,22.8530273,33.7055359,21.2714844z M33.4613342,4.2701416  c-1.079895,0.142334-3.3475342,0.3026123-8.1278687,0.3026123c-4.7650146,0-7.0335083-0.1593018-8.1175537-0.3012695  c1.1173096-0.2340698,3.4394531-0.5234375,8.1175537-0.5234375C30.0363464,3.7480469,32.3580017,4.0405273,33.4613342,4.2701416z   M34.5942078,27.9189453c-0.4765625,2.2421875-2.4189453,3.1948242-3.703125,3.824707  C30.3695984,32,29.9926453,32.1845703,29.7846375,32.4287109c-1.7519531,2.0673828-2.1611328,4.3334961-2.59375,6.7324219  l-0.125,0.6875c-0.0732422,0.3959961,0.1210938,0.6811523,0.2773438,0.9101563  c0.1982422,0.2900391,0.4033203,0.5893555,0.3261719,1.3154297c-0.0722656,0.675293,0.6914063,0.8486328,2.0771484,1.1625977  c1.0732422,0.2436523,2.6953125,0.6113281,3.1416016,1.1591797c0.1230469,0.1508789,0.09375,0.2636719,0.0556641,0.3457031  c-0.1201172,0.2519531-1.0498047,1.5102539-7.6103516,1.5102539s-7.4902344-1.2583008-7.6103516-1.5102539  c-0.0380859-0.0820313-0.0673828-0.1948242,0.0556641-0.3457031c0.4462891-0.5478516,2.0683594-0.9155273,3.1416016-1.1591797  c1.3857422-0.3139648,2.1494141-0.4873047,2.0771484-1.1625977c-0.0771484-0.7260742,0.1279297-1.0253906,0.3261719-1.3154297  c0.15625-0.2290039,0.3505859-0.5141602,0.2773438-0.9106445l-0.125-0.6870117  c-0.4326172-2.3989258-0.8417969-4.6650391-2.5947266-6.7329102C20.6742859,32.1845703,20.2973328,32,19.7758484,31.7436523  c-1.2841797-0.6298828-3.2265625-1.5825195-3.703125-3.824707c-0.5732422-2.6928711,0.6972656-4.5756836,1.7177734-6.0883789  c0.3955078-0.5864258,0.7695313-1.140625,0.9853516-1.6713867c0.8980713-2.2076416-1.4797974-12.5871582-2.1703491-15.4812012  c1.5978394,0.3193359,5.4558716,0.3947754,8.7279663,0.3947754c3.2717896,0,7.1294556-0.0754395,8.7276001-0.3947144  c-0.6907959,2.8935547-3.0684204,13.2735596-2.1699829,15.4811401c0.2158203,0.5307617,0.5898438,1.0849609,0.9853516,1.6713867  C33.8969421,23.3432617,35.16745,25.2260742,34.5942078,27.9189453z" />
</svg>